{"title":"Real.Pickups.2014.Wicked.Pictures.XXX.DVDRiP-ViK","uid":10718600,"size":1423674927,"categoryP":"porn","categoryS":"movies","magnet":"?xt=urn:btih:dfd25c78d8fb820d1378d320edbecc1dbf741fa6&amp;dn=Real.Pickups.2014.Wicked.Pictures.XXX.DVDRiP-ViK&amp;tr=udp%3A%2F%2Ftracker.openbittorrent.com%3A80&amp;tr=udp%3A%2F%2Fopen.demonii.com%3A1337&amp;tr=udp%3A%2F%2Ftracker.coppersurfer.tk%3A6969&amp;tr=udp%3A%2F%2Fexodus.desync.com%3A6969","seeders":0,"leechers":1,"uploader":"iH2OSO4","files":-1,"time":1407445384,"description":"Starring: Bibi Noel, Brooke Wylde, Callie Calypso, Jillian Janson, Keisha GreyAbout the film: Ordinary pick up artists get phone numbers, but Real Pickup artists get Pussy! Watch as REAL PICKUPS exposes unsuspecting REAL CHICKS getting picked up, then FUCKED the same day, all captured on HIDDEN CAMERAS!\n\nGeneral\nReal.Pickups.2014.Wicked.Pictures.XXX.DVDRiP-ViK.mp4\n\nSOURCE :  &lt;a href=&quot; http://nuscotower.com/i/tyyy5hjk.html&quot; rel=&quot;nofollow&quot; target=&quot;_NEW&quot;&gt; http://nuscotower.com/i/tyyy5hjk.html&lt;/a&gt;\n\nFormat                           : MPEG-4\nFormat profile                   : Base Media\nCodec ID                         : isom\nFile size                        : 1.33 GiB\nDuration                         : 1h 42mn\nOverall bit rate                 : 1 858 Kbps\nEncoded date                     : UTC 2014-08-07 14:48:45\nTagged date                      : UTC 2014-08-07 14:48:45\n\nVideo\nID                               : 1\nFormat                           : MPEG-4 Visual\nFormat profile                   : Simple@L1\nFormat settings, BVOP            : No\nFormat settings, QPel            : No\nFormat settings, GMC             : No warppoints\nFormat settings, Matrix          : Default (H.263)\nCodec ID                         : 20\nDuration                         : 1h 42mn\nBit rate mode                    : Variable\nBit rate                         : 1 731 Kbps\nMaximum bit rate                 : 7 517 Kbps\nWidth                            : 688 pixels\nHeight                           : 384 pixels\nDisplay aspect ratio             : 16:9\nOriginal display aspect ratio    : 16:9\nFrame rate mode                  : Constant\nFrame rate                       : 29.970 fps\nColor space                      : YUV\nChroma subsampling               : 4:2:0\nBit depth                        : 8 bits\nScan type                        : Progressive\nCompression mode                 : Lossy\nBits/(Pixel*Frame)               : 0.219\nStream size                      : 1.23 GiB (93%)\nWriting library                  : Lavc53.8.0\nEncoded date                     : UTC 2014-08-07 14:48:45\nTagged date                      : UTC 2014-08-07 14:50:01\n\nAudio\nID                               : 2\nFormat                           : AAC\nFormat/Info                      : Advanced Audio Codec\nFormat profile                   : LC\nCodec ID                         : 40\nDuration                         : 1h 42mn\nBit rate mode                    : Variable\nBit rate                         : 125 Kbps\nMaximum bit rate                 : 245 Kbps\nChannel(s)                       : 2 channels\nChannel positions                : Front: L R\nSampling rate                    : 44.1 KHz\nCompression mode                 : Lossy\nStream size                      : 91.1 MiB (7%)\nEncoded date                     : UTC 2014-08-07 14:49:38\nTagged date                      : UTC 2014-08-07 14:50:01","torrent":{"xt":"urn:btih:dfd25c78d8fb820d1378d320edbecc1dbf741fa6","amp;dn":"Real.Pickups.2014.Wicked.Pictures.XXX.DVDRiP-ViK","amp;tr":["udp%3A%2F%2Ftracker.openbittorrent.com%3A80","udp%3A%2F%2Fopen.demonii.com%3A1337","udp%3A%2F%2Ftracker.coppersurfer.tk%3A6969","udp%3A%2F%2Fexodus.desync.com%3A6969"],"infoHash":"dfd25c78d8fb820d1378d320edbecc1dbf741fa6","infoHashBuffer":{"type":"Buffer","data":[223,210,92,120,216,251,130,13,19,120,211,32,237,190,204,29,191,116,31,166]},"announce":[],"urlList":[]}}